<svg id="Layer_1" data-name="Layer 1" xmlns="http://www.w3.org/2000/svg" viewBox="0 0 811.74 186.17"><title>amex_3</title><path id="path7" d="M219.21,253.23,206.65,282.6H94.13l88.8-186.17H395l21.41,41.12,20-41.12h286L746.83,122l26.25-25.56H905.87L811.59,189.3l90.21,93.3H773.29l-28.75-27.42L716,282.6H257.32l-13.8-29.36m.08,2h0ZM515.4,123H459.55l-42,89.09L372.31,123H316.46V252L258.75,123H206.36l-61.7,133h37.77l12.5-30.32h71.81L281.09,256h69.41V147.76L399.71,256h32.45l48.94-106.38V256H515.4V123ZM746,166.11,706.09,123H546V256H700.77l43.88-43.62L788.8,256H830l-63-67.29L831.88,123H788.8Zm-84.31,63.3H580.29V200.15h81.38v-26.6H580.29V149.62h81.38V127L722,187.38,661.67,248Zm-430-84.57,23.4,54H206.36Z" transform="translate(-94.13 -96.43)" style="fill:#0a7ec2"/></svg>