<svg id="Layer_1" data-name="Layer 1" xmlns="http://www.w3.org/2000/svg" viewBox="0 0 920 420"><title>amex_2</title><polyline id="polyline3" points="920 0 0 0 0 420 920 420" style="fill:#0a7ec2"/><path id="path7" d="M176.21,269.53l-12.55,29.36H51.13l88.8-186.17H352l21.41,41.12,20-41.12h286l24.44,25.56,26.25-25.56H862.87l-94.28,92.87,90.21,93.3H730.29l-28.75-27.42L673,298.89H214.32l-13.8-29.36m.08,2h0ZM472.4,139.32H416.55l-42,89.09-45.21-89.09H273.46v129l-57.71-129H163.36l-61.7,133h37.77L151.93,242h71.81l14.36,30.32h69.41V164.05l49.2,108.24h32.45l48.94-106.38V272.3H472.4v-133ZM703,182.4l-39.89-43.08H503v133H657.77l43.88-43.62L745.8,272.3H787L724,205l64.89-65.69H745.8Zm-84.31,63.3H537.29V216.45h81.38v-26.6H537.29V165.91h81.38V143.31L679,203.68l-60.37,60.64Zm-430-84.57,23.4,54H163.36Z" style="fill:#fff"/></svg>