<svg id="Layer_1" data-name="Layer 1" xmlns="http://www.w3.org/2000/svg" viewBox="0 0 504 175.2"><title>amex_6</title><polygon points="43.2 43.2 60.8 43.2 52 20.8 43.2 43.2" style="fill:#2fabf7"/><path d="M265.2,24c-1.6-.8-4-.8-6.4-.8h-16V36h16c2.4,0,4.8,0,6.4-.8s2.4-3.2,2.4-5.6C268.4,26.4,266.8,24.8,265.2,24Z" transform="translate(-3.6)" style="fill:#228fe0"/><path d="M436.4,0V9.6L431.6,0H394V9.6L389.2,0H338c-8.8,0-16,1.6-22.4,4.8V0h-36V4.8c-4-3.2-8.8-4.8-15.2-4.8H135.6l-8.8,20L118,0H77.2V9.6L72.4,0H38L22,37.6,3.6,79.2H44.4l4.8-12.8H60.4l4.8,12.8h46.4V69.6l4,9.6h23.2l4-9.6v9.6H254V58.4h1.6c1.6,0,1.6,0,1.6,2.4V78.4h57.6V73.6a47.92,47.92,0,0,0,21.6,4.8h24l4.8-12.8h11.2l4.8,12.8h46.4v-12l7.2,12h37.6V0ZM166,67.2H152.4v-44l-19.2,44h-12L102,23.2v44H74.8l-5.6-12H42L37.2,68H22L46,11.2H66L88.4,64.8V11.2H110l17.6,38.4,16-38.4H166Zm54.4-44H189.2V33.6h30.4V44.8H189.2V56h31.2V68H175.6V11.2h44.8Zm60,23.2a20,20,0,0,1,2.4,10.4V68H269.2V60.8c0-3.2,0-8-2.4-11.2-2.4-2.4-4.8-2.4-9.6-2.4H242.8V68H229.2V11.2h30.4c7.2,0,12,0,16,2.4S282,20,282,26.4c0,8.8-5.6,13.6-9.6,15.2A15.21,15.21,0,0,1,280.4,46.4Zm24,20.8H290.8V10.4h13.6Zm157.6,0H442.8L417.2,24.8V67.2H390l-4.8-12h-28L352.4,68H337.2c-6.4,0-14.4-1.6-19.2-6.4s-7.2-11.2-7.2-21.6c0-8,1.6-16,7.2-22.4,4-4.8,11.2-6.4,20-6.4h12.8v12H338c-4.8,0-7.2.8-10.4,3.2-2.4,2.4-4,7.2-4,12.8,0,6.4.8,10.4,4,13.6,2.4,2.4,5.6,3.2,9.6,3.2h5.6l18.4-44h20l22.4,53.6V12h20l23.2,39.2V12h13.6V67.2Z" transform="translate(-3.6)" style="fill:#0571c1"/><polygon points="358.4 43.2 376.8 43.2 368 20.8 358.4 43.2" style="fill:#228fe0"/><polygon points="222.4 158.4 222.4 112.8 201.6 135.2 222.4 158.4" style="fill:#228fe0"/><polygon points="136.8 118.4 136.8 128.8 166.4 128.8 166.4 140 136.8 140 136.8 152 169.6 152 184.8 135.2 170.4 118.4 136.8 118.4" style="fill:#2fabf7"/><path id="SVGCleanerId_0" data-name="SVGCleanerId 0" d="M256.4,118.4H239.6v14.4h17.6c4.8,0,8-2.4,8-7.2C264.4,120.8,261.2,118.4,256.4,118.4Z" transform="translate(-3.6)" style="fill:#228fe0"/><path d="M503.6,132V96H470q-10.8,0-16.8,4.8V96H416.4c-5.6,0-12.8,1.6-16,4.8V96H335.6v4.8C330.8,96.8,322,96,318,96H274.8v4.8c-4-4-13.6-4.8-18.4-4.8h-48l-11.2,12L186.8,96h-72v78.4h70.4l11.2-12,10.4,12H250V156h5.6c5.6,0,12.8,0,18.4-2.4v21.6h36V154.4h1.6c2.4,0,2.4,0,2.4,2.4v18.4H422.8c7.2,0,14.4-1.6,18.4-4.8v4.8h34.4c7.2,0,14.4-.8,19.2-4h0c8-4.8,12.8-13.6,12.8-24A30.64,30.64,0,0,0,503.6,132Zm-248,12.8h-16V164H214l-16-18.4L181.2,164H128.4V107.2H182l16,18.4,16.8-18.4h42.4c10.4,0,22.4,3.2,22.4,18.4C278.8,141.6,267.6,144.8,255.6,144.8Zm80-3.2c1.6,2.4,2.4,5.6,2.4,10.4v11.2H324.4V156c0-3.2,0-8.8-2.4-11.2-1.6-2.4-4.8-2.4-9.6-2.4H298v20.8H284.4V106.4h30.4c6.4,0,12,0,16,2.4a14.15,14.15,0,0,1,7.2,12.8c0,8.8-5.6,13.6-9.6,15.2Q334.4,139.2,335.6,141.6Zm55.2-23.2H359.6v10.4H390V140H359.6v11.2h31.2v12H346V106.4h44.8Zm33.6,44.8H398.8v-12h25.6c2.4,0,4,0,5.6-1.6a5.8,5.8,0,0,0,0-8,6.76,6.76,0,0,0-4.8-1.6c-12.8-.8-28,0-28-17.6,0-8,4.8-16.8,19.2-16.8h26.4v13.6H418c-2.4,0-4,0-5.6.8s-1.6,2.4-1.6,4c0,2.4,1.6,3.2,3.2,4a10.15,10.15,0,0,0,4.8.8H426c7.2,0,12,1.6,15.2,4.8,2.4,2.4,4,6.4,4,12C445.2,157.6,438,163.2,424.4,163.2Zm68.8-5.6c-3.2,3.2-8.8,5.6-16.8,5.6H450.8v-12h25.6c2.4,0,4,0,5.6-1.6a5.8,5.8,0,0,0,0-8,6.76,6.76,0,0,0-4.8-1.6c-12.8-.8-28,0-28-17.6,0-8,4.8-16.8,19.2-16.8h26.4v13.6h-24c-2.4,0-4,0-5.6.8s-1.6,2.4-1.6,4c0,2.4.8,3.2,3.2,4a10.15,10.15,0,0,0,4.8.8h7.2c7.2,0,12,1.6,15.2,4.8a.78.78,0,0,1,.8.8c2.4,3.2,3.2,7.2,3.2,11.2A16.28,16.28,0,0,1,493.2,157.6Z" transform="translate(-3.6)" style="fill:#0571c1"/><path id="SVGCleanerId_1" data-name="SVGCleanerId 1" d="M321.2,120c-1.6-.8-4-.8-6.4-.8h-16V132h16c2.4,0,4.8,0,6.4-.8s2.4-3.2,2.4-5.6C324.4,122.4,322.8,120.8,321.2,120Z" transform="translate(-3.6)" style="fill:#228fe0"/><path d="M265.2,24c-1.6-.8-4-.8-6.4-.8h-16V36h16c2.4,0,4.8,0,6.4-.8s2.4-3.2,2.4-5.6C268.4,26.4,266.8,24.8,265.2,24Z" transform="translate(-3.6)" style="fill:#228fe0"/><polygon points="358.4 43.2 376.8 43.2 368 20.8 358.4 43.2" style="fill:#228fe0"/><polygon points="222.4 158.4 222.4 112.8 201.6 135.2 222.4 158.4" style="fill:#228fe0"/><path id="SVGCleanerId_0-2" data-name="SVGCleanerId 0" d="M256.4,118.4H239.6v14.4h17.6c4.8,0,8-2.4,8-7.2C264.4,120.8,261.2,118.4,256.4,118.4Z" transform="translate(-3.6)" style="fill:#228fe0"/><path id="SVGCleanerId_1-2" data-name="SVGCleanerId 1" d="M321.2,120c-1.6-.8-4-.8-6.4-.8h-16V132h16c2.4,0,4.8,0,6.4-.8s2.4-3.2,2.4-5.6C324.4,122.4,322.8,120.8,321.2,120Z" transform="translate(-3.6)" style="fill:#228fe0"/><polygon points="247.2 161.6 236 149.6 236 163.2 209.6 163.2 193.6 144.8 176 163.2 123.2 163.2 123.2 107.2 176.8 107.2 193.6 125.6 201.6 116 181.6 96 111.2 96 111.2 174.4 181.6 174.4 193.6 162.4 204 174.4 247.2 174.4 247.2 161.6" style="fill:#2fabf7"/><polygon points="164 78.4 153.6 67.2 148.8 67.2 148.8 62.4 136.8 50.4 128.8 67.2 117.6 67.2 98.4 23.2 98.4 67.2 71.2 67.2 65.6 55.2 38.4 55.2 32.8 67.2 18.4 67.2 42.4 11.2 62.4 11.2 84.8 64.8 84.8 11.2 96.8 11.2 85.6 0 73.6 0 73.6 9.6 69.6 0 34.4 0 18.4 37.6 0 78.4 18.4 78.4 41.6 78.4 46.4 66.4 57.6 66.4 63.2 78.4 108 78.4 108 68.8 112 78.4 135.2 78.4 139.2 68.8 139.2 78.4 164 78.4" style="fill:#2fabf7"/><polygon points="127.2 41.6 114.4 28.8 124 49.6 127.2 41.6" style="fill:#2fabf7"/><path d="M494.8,170.4a29.26,29.26,0,0,0,12.8-21.6l-11.2-11.2a23.67,23.67,0,0,1,1.6,8,16.28,16.28,0,0,1-4.8,12c-3.2,3.2-8.8,5.6-16.8,5.6H450.8v-12h25.6c2.4,0,4,0,5.6-1.6a5.8,5.8,0,0,0,0-8,6.76,6.76,0,0,0-4.8-1.6c-12.8-.8-28,0-28-17.6,0-8,4.8-15.2,16.8-16.8l-8.8-8.8c-1.6.8-2.4,1.6-3.2,1.6V93.6H417.2c-5.6,0-12.8,1.6-16,4.8V93.6H335.6v4.8c-4.8-4-13.6-4.8-17.6-4.8H274.8v4.8c-4-4-13.6-4.8-18.4-4.8h-48l-11.2,12-10.4-12H178l24,24,12-12.8h42.4c10.4,0,22.4,3.2,22.4,18.4,0,16-11.2,19.2-23.2,19.2h-16v12l12,12v-12h4c5.6,0,12.8,0,18.4-2.4v21.6h36V152.8h1.6c2.4,0,2.4,0,2.4,2.4v18.4H422.8c7.2,0,14.4-1.6,18.4-4.8v4.8h34.4c6.4.8,13.6,0,19.2-3.2ZM335.6,141.6c1.6,2.4,2.4,5.6,2.4,10.4v11.2H324.4V156c0-3.2,0-8.8-2.4-11.2-1.6-2.4-4.8-2.4-9.6-2.4H298v20.8H284.4V106.4h30.4c6.4,0,12,0,16,2.4a14.15,14.15,0,0,1,7.2,12.8c0,8.8-5.6,13.6-9.6,15.2Q334.4,139.2,335.6,141.6Zm55.2-23.2H359.6v10.4H390V140H359.6v11.2h31.2v12H346V106.4h44.8Zm33.6,44.8H398.8v-12h25.6c2.4,0,4,0,5.6-1.6a5.8,5.8,0,0,0,0-8,6.76,6.76,0,0,0-4.8-1.6c-12.8-.8-28,0-28-17.6,0-8,4.8-16.8,19.2-16.8h26.4v13.6H418c-2.4,0-4,0-5.6.8s-1.6,2.4-1.6,4c0,2.4,1.6,3.2,3.2,4a10.15,10.15,0,0,0,4.8.8H426c7.2,0,12,1.6,15.2,4.8,2.4,2.4,4,6.4,4,12C445.2,157.6,438,163.2,424.4,163.2Z" transform="translate(-3.6)" style="fill:#228fe0"/><path d="M462.8,124c0,2.4.8,3.2,3.2,4a10.15,10.15,0,0,0,4.8.8H478a23.23,23.23,0,0,1,11.2,2.4l-12-12H470c-2.4,0-4,0-5.6.8A6.11,6.11,0,0,0,462.8,124Z" transform="translate(-3.6)" style="fill:#228fe0"/><polygon points="431.2 76 432.8 78.4 433.6 78.4 431.2 76" style="fill:#228fe0"/><polygon points="387.2 32 400.8 64.8 400.8 45.6 387.2 32" style="fill:#228fe0"/><path d="M254,58.4h1.6c1.6,0,1.6,0,1.6,2.4V78.4h57.6V73.6a47.92,47.92,0,0,0,21.6,4.8h24l4.8-12.8h11.2l4.8,12.8h46.4v-8L416.4,59.2V68H389.2l-4-12.8h-28L352.4,68H337.2c-6.4,0-14.4-1.6-19.2-6.4s-7.2-11.2-7.2-21.6c0-8,1.6-16,7.2-22.4,4-4.8,11.2-6.4,20-6.4h12.8v12H338c-4.8,0-7.2.8-10.4,3.2-2.4,2.4-4,7.2-4,12.8,0,6.4.8,10.4,4,13.6,2.4,2.4,5.6,3.2,9.6,3.2h5.6l18.4-44h8L358,.8H337.2c-8.8,0-16,1.6-22.4,4.8V.8H279.6V5.6c-4-3.2-8.8-4.8-15.2-4.8H135.6l-8.8,20L118,.8H82.8L94,12h16l13.6,29.6,4.8,4.8,14.4-35.2h22.4V68H151.6V24L138,56l23.2,23.2h92Zm36.8-47.2h13.6V68H290.8Zm-70.4,12H189.2V33.6h30.4V44.8H189.2V56h31.2V68H175.6V11.2h44.8Zm22.4,44H229.2V10.4h30.4c7.2,0,12,0,16,2.4s6.4,6.4,6.4,12.8c0,8.8-5.6,13.6-9.6,15.2a10.47,10.47,0,0,1,6.4,4.8A20,20,0,0,1,281.2,56V67.2H267.6V60c0-3.2,0-8-2.4-11.2-.8-1.6-3.2-1.6-8-1.6H242.8v20Z" transform="translate(-3.6)" style="fill:#228fe0"/></svg>