<svg id="Capa_1" data-name="Capa 1" xmlns="http://www.w3.org/2000/svg" viewBox="0 0 512 353.1"><title>card</title><path d="M512,402.28a30.27,30.27,0,0,1-30.27,30.27H30.26A30.27,30.27,0,0,1,0,402.28V109.72A30.27,30.27,0,0,1,30.26,79.45H481.73A30.27,30.27,0,0,1,512,109.72V402.28Z" transform="translate(0 -79.45)" style="fill:#e7e8e3"/><rect y="68.68" width="512" height="72.01" style="fill:#34495e"/><rect y="140.71" width="512" height="44.55" style="fill:#fff"/><path d="M21.52,402.28V109.72A30.27,30.27,0,0,1,51.78,79.45H30.26A30.27,30.27,0,0,0,0,109.72V402.28a30.27,30.27,0,0,0,30.26,30.27H51.78A30.27,30.27,0,0,1,21.52,402.28Z" transform="translate(0 -79.45)" style="fill:#202121;opacity:0.15000000596046448;isolation:isolate"/><path d="M160.06,322.72H55.44a8.35,8.35,0,1,1,0-16.7H160.06a8.35,8.35,0,1,1,0,16.7Z" transform="translate(0 -79.45)" style="fill:#fff"/><path d="M160.06,357.42H55.44a8.35,8.35,0,1,1,0-16.7H160.06a8.35,8.35,0,1,1,0,16.7Z" transform="translate(0 -79.45)" style="fill:#fff"/><path d="M160.06,392.12H55.44a8.35,8.35,0,1,1,0-16.7H160.06a8.35,8.35,0,1,1,0,16.7Z" transform="translate(0 -79.45)" style="fill:#fff"/></svg>