<svg id="Layer_1" data-name="Layer 1" xmlns="http://www.w3.org/2000/svg" viewBox="0 0 1423 461.05"><title>visa_2</title><path d="M958.35,17c3.05,1.41,6.38,1,9.58,1.34a282,282,0,0,1,72.8,16.69c2,.76,2.25,1.65,1.91,3.66q-7.43,45-14.67,90.11c-.17,1-.48,2.07-.77,3.34a264.22,264.22,0,0,0-30.65-12.37c-28.79-9.18-58.18-11.88-88.08-7.39-12,1.8-23.14,5.9-32.49,14-14,12.2-15,28.9-2.4,42.43,8.62,9.24,19.48,15.36,30.31,21.5,16.88,9.59,34.79,17.22,51.45,27.22,17.17,10.31,33,22.22,46,37.68,18.6,22.23,26.57,47.84,24.92,76.73-1.82,31.84-12.43,60.08-33.54,84.13-17.48,19.92-39.26,33.66-63.69,43.44-25,10-51,15-77.73,17-5.32.4-10.65.58-16,.86-4.63.52-9.28.1-13.92.23-1.3-.09-2.63.21-3.91-.23-27.29-1.1-54.3-4.35-80.88-10.77a238.06,238.06,0,0,1-36.81-11.75c-2-.84-2.46-1.68-2.09-3.91q7.74-47.15,15.15-94.35c.53-3.41,2-2.34,3.74-1.49a400,400,0,0,0,42.17,17.74c29.11,10.18,59.14,13,89.67,11a83.88,83.88,0,0,0,33.69-9.21c11.1-5.79,20-13.66,22.91-26.5,2.83-12.43-1.13-22.88-9.84-31.77-8.39-8.56-18.52-14.7-28.86-20.54C852,287.86,836.87,281.28,822.63,273c-21.48-12.45-41.41-26.77-56.65-46.76s-22.07-42.35-20.65-67.42c2.58-45.66,24.51-80.06,61.51-105.5,26.33-18.1,56-27.89,87.32-32.83,8.08-1.27,16.21-2.13,24.36-2.78.57,0,1.21,0,1.41-.72h7.83c1.63.78,3.36.18,5,.37,1.88-.19,3.8.41,5.64-.37h2.85c2.52.78,5.11.17,7.65.37h3.52c1.49-.19,3,.41,4.48-.37Z" transform="translate(-8.5 -17.01)" style="fill:#00579e"/><path d="M130.13,83.52A397.55,397.55,0,0,0,78.92,57.74,498.16,498.16,0,0,0,8.5,34.09V32c.21-.27.53-.5.61-.81C10.79,25,10.78,25,17,25q87.81,0,175.62,0a92.58,92.58,0,0,1,21.13,2.35c19.43,4.55,30.69,17,34.5,36.25q19.63,98.85,39,197.76a31.26,31.26,0,0,1,.3,3.18c-1.39-.29-1.75-1.49-2.17-2.58a327.66,327.66,0,0,0-30.83-60.35,319.4,319.4,0,0,0-30.74-40.41c-5.87-6.5-11.57-13.17-17.9-19.24A401.36,401.36,0,0,0,156,100.93c-7.42-5.11-15-10-22.69-14.64A7,7,0,0,1,130.13,83.52Z" transform="translate(-8.5 -17.01)" style="fill:#f9a51a"/><path d="M821,477.47h14.28a5.24,5.24,0,0,0,0,.6H821q-.34-.19-.23-.39C820.87,477.54,820.94,477.47,821,477.47Z" transform="translate(-8.5 -17.01)" style="fill:#c8daea"/><path d="M949.15,17.69c-2.62-.27-5.36.8-7.87-.67h7.83q.34.2.24.43T949.15,17.69Z" transform="translate(-8.5 -17.01)" style="fill:#1c69a9"/><path d="M938.43,17c-1.77,1.4-3.82.44-5.72.68q-.32-.24-.2-.46t.23-.22Z" transform="translate(-8.5 -17.01)" style="fill:#1866a7"/><path d="M932.74,17q0,.34,0,.68c-1.65-.26-3.46.72-5-.68Z" transform="translate(-8.5 -17.01)" style="fill:#367bb3"/><path d="M956.93,17c-1.22,1.45-2.81.44-4.21.61q-.4-.17-.29-.39c.08-.15.15-.23.24-.23Z" transform="translate(-8.5 -17.01)" style="fill:#89b1d2"/><path d="M952.66,17a3.77,3.77,0,0,0,.05.61l-3.57.06a3.84,3.84,0,0,1,0-.67Z" transform="translate(-8.5 -17.01)" style="fill:#548ebe"/><path d="M821,477.47q0,.3,0,.6h-3.56q0-.3,0-.59Z" transform="translate(-8.5 -17.01)" style="fill:#e7eff6"/><path d="M130.13,83.52a365.25,365.25,0,0,1,53.76,37.58c43.89,36.71,77.56,81.05,99.62,134,1.31,3.15,2.65,6.29,4,9.45,4.33,18.2,7.44,36.65,11.3,54.94.59,2.78,1.11,5.57,1.68,8.43,1.52-.54,1.42-2.06,1.83-3.15Q357.22,177,412,29.09c1.16-3.14,2.62-4.18,6-4.17,37.82.14,75.64.09,113.46.09,4,0,4,0,2.53,3.73q-89.18,219.2-178.3,438.42c-1,2.44-2.16,3.33-4.87,3.32q-57.44-.15-114.88,0c-2.73,0-3.84-.72-4.56-3.42q-47.33-178.91-94.78-357.78C134.36,100.72,131.62,92.27,130.13,83.52Z" transform="translate(-8.5 -17.01)" style="fill:#00579e"/><path d="M567.6,471c-18.14,0-36.28-.06-54.42.07-2.78,0-3.31-.63-2.86-3.33q9.27-56.6,18.36-113.23,9.8-60.47,19.64-120.94,9.41-58.2,18.76-116.41Q574.26,72.57,581.44,28c.35-2.18,1.09-3.1,3.56-3.09q54.59.14,109.19,0c2.58,0,3,.53,2.61,3.17q-13.12,80.45-26,160.93-13.7,84.67-27.47,169.32-8.74,54-17.29,108c-.56,3.54-1.6,4.73-5.43,4.67C602.93,470.8,585.26,471,567.6,471Z" transform="translate(-8.5 -17.01)" style="fill:#00579e"/><path d="M1429.84,457.64q-11.74-56.23-23.49-112.47-17.45-83.75-34.94-167.49-15.47-74.17-31-148.34c-1-5-1.62-5.56-6.58-5.5-31.29.37-62.6-1-93.87.74-23.44,1.33-40.81,12.15-50.36,34.07-11.74,27-22.84,54.19-34.21,81.31q-20.09,47.89-40.12,95.8-25.85,61.67-51.68,123.35Q1045,403.56,1026.38,448c-2.71,6.45-5.45,12.89-8,19.39-1.32,3.33-.62,4.25,3,4.51.59,0,1.19,0,1.78,0q55.5,0,111,0c5.12,0,5.56-.29,7.28-5,6.84-18.71,13.56-37.46,20.37-56.18,2.06-5.68,2-5.7,8.08-5.7h134.12c6.37,0,6.37,0,7.65,6.1.15.7.28,1.4.42,2.09,3.55,17.79,7.26,35.55,10.95,53.31,1,4.78,1.64,5.35,6.34,5.36q48.91,0,97.83,0c1.53,0,3.11.13,4.39-1v-2.13C1430.72,465.13,1430.61,461.34,1429.84,457.64ZM1289.57,313q-45.7-.08-91.4,0c-.46,0-.91-.09-1.77-.19,20.17-55.46,41.12-110.43,61.3-165.94,1.36,6.45,2.75,12.9,4.08,19.36q14.88,72.14,29.81,144.27C1292,312.66,1291.65,313,1289.57,313Z" transform="translate(-8.5 -17.01)" style="fill:#00579e"/></svg>