<svg id="Layer_1" data-name="Layer 1" xmlns="http://www.w3.org/2000/svg" viewBox="0 0 650.06 249.89"><title>hnb</title><path d="M-166.67,274.89c11.89,3.1,19.9,11.2,25.6,21.37,11.84,21.14,13.15,43.2,4.12,65.81-2.4,6-6.86,10.37-11.14,14.93-.76.56-1.72.93-1.88,2h0a51.5,51.5,0,0,0-6,5,28.13,28.13,0,0,1-7,4.54c-1,.49-2.31,1-2.14,2.43s1.59.86,2.42,1.25c13.53,6.38,25.11,14.81,30.56,29.53,9.46,25.51,4.36,64.91-20.19,82.77a58.23,58.23,0,0,1-25.45,10.56c-13,1.62-26,3-39.18,3q-48.22-.21-96.44,0c-3.29,0-4.1-.77-4.1-4q.13-119.67,0-239.35c0-3.16.67-4.31,4.12-4.3,36.48.13,73,0,109.43.14a191.34,191.34,0,0,1,22.88,1.18A69.9,69.9,0,0,1-166.67,274.89Z" transform="translate(777.81 -269.2)" style="fill:#010101"/><path d="M-505.71,270.89q20.92,35.68,41.83,71.37,36.07,61.79,72,123.63c.55.95.75,2.53,2.31,2s.7-2,.7-3.06q0-95-.08-190c0-3.95.66-5.51,5.07-5.3,8.48.41,17,.26,25.49.05,3-.08,4,.56,4,3.78q-.13,120.73,0,241.46c0,3.25-.83,4.23-4.22,4.15-11.33-.25-22.66-.21-34,0-2.62,0-3.85-.93-5.06-3q-40.61-68.71-81.31-137.36-15.5-26.16-30.95-52.35c-.9-1.53-2.39-2.85-2.27-4.88-2.21-1.76-3-.25-3,1.59s.12,3.66.12,5.49q0,92.49.1,185c0,3.79-.94,4.81-4.7,4.65-7.48-.33-15-.06-22.49-.12-1.74,0-3.7.45-5.52-2.4,7.73-1.12,15-.24,21.06-.57-4.17,0-9.44-.09-14.71,0-3.26.07-4.64-1.24-4.21-4.47a11.62,11.62,0,0,0,0-1.5q0-114.23,0-228.47c0-.83-.06-1.67,0-1.82q0,116.77,0,235.17c-2.21-.4-2.31-1.55-2.41-2.65-.13-1.5-.07-3-.07-4.5q0-114.48,0-229c0-1.5,0-3,.08-4.5.13-1.73.88-2.83,2.78-2.8C-532,270.74-518.84,270-505.71,270.89Z" transform="translate(777.81 -269.2)" style="fill:#010101"/><path d="M-740.92,408.22c-1.59,1.49-1,3.42-1,5.2,0,33.49-.11,67,.08,100.47,0,4.28-1.21,5.26-5.29,5.11-8.82-.33-17.67-.31-26.49,0-3.49.12-4.18-1-4.16-4.18.11-18.49.06-37,.06-55.49q0-92.48-.1-185c0-4,.9-5,4.92-4.84,8.81.38,17.67.38,26.48,0,4-.16,4.57,1.18,4.55,4.75-.14,32.49,0,65-.18,97.47,0,4.42,1.14,5.58,5.55,5.56q55-.27,110,0c4.49,0,6-1,6-5.8-.22-32.49-.07-65-.18-97.47,0-3.24.33-4.66,4.18-4.51,9,.36,18,.4,27,0,4.35-.19,4.79,1.48,4.77,5.15-.12,37.32-.07,74.65-.07,112,0,42.32-.05,84.64.08,127,0,4-.73,5.54-5.14,5.37-9.48-.36-19-.09-28.49-.06-.69,0-1.31,0-1.67-.71-.94-2.64.16-5.25.16-7.88-.09-31.93-.05-63.87-.06-95.8,0-6.29-.72-7.05-7.24-7.06q-53.89,0-107.77,0A26.13,26.13,0,0,0-740.92,408.22Z" transform="translate(777.81 -269.2)" style="fill:#010101"/><path d="M-491,380.09c7.29,10.49,13.34,21.74,19.84,32.7q29.52,49.73,59,99.5A27.31,27.31,0,0,1-411,515a2.73,2.73,0,0,1-1.77,1.92,8.45,8.45,0,0,1-2.76.47c-27,.1-53.92,0-80.88,0-1.82,0-3.68.14-5.39-.73-1.76-1.13-1.26-2.88-1.26-4.51q0-69.9.06-139.8c0-2.2-1.17-5.47,1.38-6.32,3.08-1,2.7,3,4.15,4.49C-494.74,373.33-494.43,377.76-491,380.09Z" transform="translate(777.81 -269.2)" style="fill:#0134fe"/><path d="M-449.16,346l-34.54-58.62c-3-5.11-5.89-10.3-9.11-15.27-2-3.15,0-2.45,1.76-2.24,1.66,1.17,3.55.57,5.31.58,27.73.09,55.45-.05,83.18.09,1.17.48,1.1,1.38.8,2.35-2.91,1.72-6.18,1.05-9.23,1.05-21.33,0-42.66.09-58.38,0,16.64,0,38.87.09,61.11-.08,3.39,0,4.92,1.39,5.51,4.4a25.71,25.71,0,0,1,.22,5q0,59.49,0,119c0,3,.17,6.06-1.42,8.77-1.28,2.19-2.84,2.78-4.54.32a21.48,21.48,0,0,1-3.59-7.59c-2.3-6.61-6.4-12.2-10.52-17.79,4.28,5.48,7,11.8,10.19,17.91,0,1.32.07,2.71-2,2.28L-447,350C-447.71,348.7-447.79,347-449.16,346Z" transform="translate(777.81 -269.2)" style="fill:#feb136"/><path d="M-505.71,270.89c-12.16,0-24.33.21-36.49,0-3.66,0-4.88.93-4.87,4.75q.15,117.24.09,234.47a3.67,3.67,0,0,0,1,2.79v-240c2.22,2.48.86,5.15.87,7.68q.16,88,.08,176c0,17.5.13,35-.09,52.49-.05,4.07,1.28,5.14,5.14,5,7.41-.27,14.83-.08,22.25-.08l.05,1.53h-28.15q0,.73,0,1.47c8.31,0,16.64-.34,24.92.14,4.21.24,5.05-.3,5-4.85-.24-63-.17-126-.14-189,0-1.39-.73-3.28,1.12-4,1.55-.58,2.43.56,2.74,2.06-2.35-1-2.42.39-2.37,2.18.1,3.49,0,7,0,10.48q0,89.69.09,179.38c0,4.23-.7,5.85-5.37,5.6-8.3-.45-16.66-.33-25,0-3.5.12-4.2-1.11-4.16-4.25.13-12.32.05-24.65.05-37q0-101.93-.08-203.86c0-3.51.8-4.45,4.37-4.37,11.65.26,23.32.09,35,.12C-508.2,269.68-506.47,268.83-505.71,270.89Z" transform="translate(777.81 -269.2)" style="fill:#070707"/><path d="M-413,403c.92-.35,2.5-.9,2.46.32-.14,3.87,3.52,5.67,4,9.6,2.5-3.25,2.51-6.36,2.51-9.51q0-60.66,0-121.33c0-6.64,0-6.32-6.77-6.69-15.13-.83-30.26-.14-45.39-.37-7.15-.11-14.31,0-21.47-.05-1.24,0-3.5,1.48-3.48-1.05,0-1.72,2.19-.87,3.35-.87,22.63-.06,45.27-.09,67.9,0,2.62,0,5.24-1,7.86-.07,3.23.85,1.91,3.53,1.92,5.38.12,17,.07,33.94.07,50.91q0,44.93,0,89.85c0,2.56.71,5.46-2.17,7.21-4.66-6.36-8.3-13.33-12.16-20.18C-412.95,405.52-413,404.25-413,403Z" transform="translate(777.81 -269.2)" style="fill:#fdb137"/><path d="M-166.67,274.89c-48.58-7.2-97.48-2.53-146.21-3.94-3.44-.1-4.15,1.31-4.14,4.41q.1,119.19,0,238.39c0,2-.36,3.42,3,3.4q55.47-.34,110.95-.1c8.5,0,16.68-3.15,25.23-2-10.47,3.11-21.32,3.56-32.06,3.67-34.81.36-69.63.13-104.44.24-2.79,0-4.1-.63-3.74-3.55a20.23,20.23,0,0,0,0-2.5q0-119.19-.07-238.37c0-3.61.31-5.07,4.72-5,38,.25,76-.07,113.93.29C-188.41,269.91-177.17,270.4-166.67,274.89Z" transform="translate(777.81 -269.2)" style="fill:#050505"/><path d="M-491,380.09c-1.27,3.18-1.95.81-2.57-.33-2.43-4.43-4.78-8.9-7.39-13.77-1.57,2.27-1,4.31-1,6.18q-.05,67.74,0,135.47,0,4.18,0,8.36c.81.86,1.87.51,2.82.51q40.9,0,81.79,0c1.14,0,2.34.27,3.38-.5h2c.78.06,1.36.72,2.15.72,2.08,2.58-.09,2.19-1.56,2.19-6.67,0-13.33,0-20,0-22.83,0-45.66-.05-68.49.06-3,0-4.36-.46-4.35-4q.15-77.73.05-155.47a7.34,7.34,0,0,1,.64-1.58C-499.27,365.62-494.34,372.38-491,380.09Z" transform="translate(777.81 -269.2)" style="fill:#022dfc"/><path d="M-740.92,408.22c1.11-1.88,3-1.19,4.52-1.19,37,0,74,0,111-.09,4.74,0,6.51,1.72,6.5,6.46-.11,32.49,0,65-.11,97.47a52,52,0,0,1-1,7.37c-1.21-1.47-.62-3.2-.62-4.8,0-33-.13-65.91.08-98.86,0-4.75-1.13-6.27-6-6.24-37.28.22-74.56.18-111.84.21A18.21,18.21,0,0,1-740.92,408.22Z" transform="translate(777.81 -269.2)" style="fill:#0f0f0f"/><path d="M-402.2,426.35A24.25,24.25,0,0,0-401,418q-.07-69.68-.07-139.35c0-1.91.75-4-1-5.69q0-1,0-2c.12-.57.73-.69,1-1.12,2.34.34,1.62,2.2,1.62,3.53q0,78.18,0,156.36c0,.1-.21.21-.56.52C-401.44,429.45-401.8,427.89-402.2,426.35Z" transform="translate(777.81 -269.2)" style="fill:#fca822"/><path d="M-631.83,365.16c-1.49,1.14-3.22.61-4.83.61-30,0-59.92,0-89.88.09-3.68,0-5-.52-4.91-4.87.29-29.29.19-58.59,0-87.88,0-2.86.46-3.92,3.36-3.91q47.19.08,94.38.07a6,6,0,0,1,1.81.63l-.62.66c-1.83,1.07-3.87.82-5.84.82q-40.89,0-81.78,0c-1.88,0-3.72-.61-5.59-.19a2.91,2.91,0,0,1-.78,1.75c-.52.61-1,1.19-1.51,1.83a6,6,0,0,0-.52,2.43c0,28.05-.29,56.1.17,84.14,1.36,3.16,4.21,2.14,6.52,2.15,27.2.07,54.39,0,81.59.06,2.31,0,4.65-.22,6.93.4A3.16,3.16,0,0,1-631.83,365.16Z" transform="translate(777.81 -269.2)" style="fill:#fcb136"/><path d="M-632,419.95c1.71,1.06.8,2.73.8,4.08.06,29.93,0,59.85.14,89.78,0,4.17-1.07,5.25-5.24,5.23-30.26-.19-60.52-.09-90.77-.14-1.39,0-3,.76-4.18-.7l.64-.73a5,5,0,0,1,1.8-.68c25.83-.42,51.66-.07,77.49-.19,4.83,0,9.67.08,14.48-.09,3,0,3.84-1.68,3.4-4.38q0-43.48,0-86.93c.06-1.56,0-3.14.79-4.57Z" transform="translate(777.81 -269.2)" style="fill:#1535fa"/><path d="M-731.05,420a10,10,0,0,1,2.31-.56q47,0,93.94,0c1,0,2-.23,2.84.56l-.26.28c-2.33,1.72-5.08,1.36-7.68,1.36q-42.06.08-84.11,0c-2.15,0-4.33.13-6.33-1Z" transform="translate(777.81 -269.2)" style="fill:#1535fa"/><path d="M-731.2,518.19c-.87-1-.58-2.2-.58-3.34q0-45.86,0-91.72c0-1.08-.57-2.36.71-3.17l.27.27c1.65,2,1.38,4.38,1.38,6.68q.06,42.14,0,84.28c0,2.3.24,4.7-1.44,6.66Z" transform="translate(777.81 -269.2)" style="fill:#1535fa"/><path d="M-631.89,269.9c1.19.83.8,2.09.8,3.2q0,44.41,0,88.82c0,1.11.4,2.36-.73,3.23l-.32-.3c-1.59-1.82-1.25-4.07-1.25-6.19q0-41.14,0-82.29c0-2.12-.36-4.37,1.22-6.2Z" transform="translate(777.81 -269.2)" style="fill:#fcb136"/><path d="M-401,269.88l-1,1.12q-41.7,0-83.4,0c-1.9,0-4,.79-5.63-1.06Z" transform="translate(777.81 -269.2)" style="fill:#fdb137"/><path d="M-156,384a8.5,8.5,0,0,1,6-5A15.45,15.45,0,0,1-156,384Z" transform="translate(777.81 -269.2)" style="fill:#0d0d0d"/><path d="M-449.16,346c2,.64,2.24,2.23,2.14,4Z" transform="translate(777.81 -269.2)" style="fill:#fcb33b"/><path d="M-150,379l-.69-2.1,2.57.06A2.14,2.14,0,0,1-150,379Z" transform="translate(777.81 -269.2)" style="fill:#0d0d0d"/><path d="M-409.86,516.71c-1.33,1.58-1.62.08-2.15-.72l1.05-1Z" transform="translate(777.81 -269.2)" style="fill:#012bfd"/><path d="M-235.73,406.33c11.56.24,25.25-.75,38.85.87,12,1.43,22.86,5.7,27.41,17.76,6.54,17.33,6.65,34.57-5.67,50-6.16,7.7-15,10.7-24.36,12a131.58,131.58,0,0,1-18.93.92c-19.65-.09-39.3-.14-59,.05-4,0-5.09-1.25-5.06-5.15q.23-35.72,0-71.44c0-4,1.24-5.14,5.17-5.08C-264.13,406.46-251,406.33-235.73,406.33Z" transform="translate(777.81 -269.2)" style="fill:#fdfefe"/><path d="M-277.5,375.4c-3.65,0-5-1-4.93-4.79q.23-32.73,0-65.46c0-3.6.92-4.86,4.82-4.83,23.82.2,47.64.1,71.46.09a60.27,60.27,0,0,1,16.81,2c10,2.89,15.6,10.51,18.81,19.82a45.32,45.32,0,0,1-.57,32.24c-4.84,12.22-13.82,19.21-27,20.3" transform="translate(777.81 -269.2)" style="fill:#fefefd"/><path d="M-195.73,514.79c-1.27,1.79-3.08,1.19-4.65,1.19-36.81,0-73.62,0-110.43.11-4.2,0-5.29-1.24-5.28-5.35q.17-116.17.11-232.35c0-1.56-.59-3.29,1-5,1.67,2,.94,4.16.94,6.09q.06,113.92,0,227.85c0,6.72,0,6.72,6.74,6.72q49,0,97.94,0c2.81,0,5.61.17,8.4-.75C-199.09,512.63-197,512.73-195.73,514.79Z" transform="translate(777.81 -269.2)" style="fill:#050505"/><path d="M-195.72,297.56h-85.57v-1h85.57Z" transform="translate(777.81 -269.2)" style="fill:#050505"/><path d="M-285.5,406.35v79.49C-287.36,483.52-287.92,412.93-285.5,406.35Z" transform="translate(777.81 -269.2)" style="fill:#050505"/><path d="M-285.45,301.72v72.57h-1V301.72Z" transform="translate(777.81 -269.2)" style="fill:#050505"/><path d="M-200.18,403.19h-80.49v-.83h80.59Z" transform="translate(777.81 -269.2)" style="fill:#060606"/><path d="M-280.67,491.14h78.33v.5h-78.54Z" transform="translate(777.81 -269.2)" style="fill:#090909"/><path d="M-358,273.91q0,99.6,0,199.21c0,13.48.16,27,.38,40.45,0,1.41.06,2.37-1.5,2.37-11.73,0-23.46,0-35.47,0,.77-2.65,2.37-1.92,3.49-1.93,8.33-.07,16.66,0,25,0,7.09,0,7.09,0,7.09-6.87q0-114,0-227.93v-5.26Z" transform="translate(777.81 -269.2)" style="fill:#050505"/><path d="M-385.14,273.33V467.67h-.5V273.13Z" transform="translate(777.81 -269.2)" style="fill:#070707"/><path d="M-774,274.3v5.42q0,113.7,0,227.41c0,6.87,0,6.87,7.09,6.87,5.33,0,10.68-.26,16,.08,4.1.27,5-1.3,5-5.14-.13-31.15-.08-62.31-.08-93.46v-5.92c1.48,1.64,1,3,1,4.22,0,32.32,0,64.64.11,97,0,4.12-1.08,5.59-5.3,5.34-7.12-.43-14.28,0-21.43-.38-3.11-.17-3.46-1.21-3.41-3.75.13-6.49,0-13,0-19.49q0-106.46,0-212.91v-5.39Z" transform="translate(777.81 -269.2)" style="fill:#060606"/><path d="M-621.93,381.34H-741.28v-.77h119.35Z" transform="translate(777.81 -269.2)" style="fill:#070707"/><path d="M-622.13,404.74h-118.8v-.63h118.8Z" transform="translate(777.81 -269.2)" style="fill:#060606"/><path d="M-414,516c-.82,1.08-2,1-3.18,1h-83.29a4.75,4.75,0,0,1-1.42-.2c-.11,0-.07-.52-.11-.8Z" transform="translate(777.81 -269.2)" style="fill:#012bfd"/><path d="M-413.27,403.66-425.1,383c3.6,1.38,5.49,4.19,6.86,7.06s5.71,3.93,4.51,8.53C-414.12,400.17-412.53,401.86-413.27,403.66Z" transform="translate(777.81 -269.2)" style="fill:#fdb137"/><path d="M-730,362.07q0-42.11,0-84.22c0-1.75-1.09-4.22,2-4.86.92,1.73.46,3.59.46,5.39q.06,42.13,0,84.26,0-44.38,0-88.75A3.48,3.48,0,0,1-727,272l1-1a4.39,4.39,0,0,1,2.88-.49c28.19.05,56.38-.12,84.57.06a4.62,4.62,0,0,1,3.26.82c2.14,2.35,1.67,5.28,1.68,8.05q.06,37.56,0,75.12a33.75,33.75,0,0,0,.36,7.44,2.68,2.68,0,0,1,.24,1.88c-1.33,1-2.89.57-4.35.57q-43.72,0-87.44,0C-726.84,364.48-729.28,365.12-730,362.07Z" transform="translate(777.81 -269.2)" style="fill:#feb136"/><path d="M-636,272c-2.92-1.24-6-1-9.06-1q-40.47-.06-80.94,0l-3.35.16v-1h97.19q0,47.35,0,94.69L-726,365c-2.05,0-4.22.24-3.94-2.89,1.35,1.8,3.23,2,5.31,2q43.72-.06,87.45,0c1.45,0,3,.44,4.18-1-1.53-2.08-.94-4.49-.95-6.77-.15-27.43.2-54.86-.2-82.29A3.55,3.55,0,0,0-636,272Z" transform="translate(777.81 -269.2)" style="fill:#faa822"/><path d="M-727,272v89.77h-1V273Z" transform="translate(777.81 -269.2)" style="fill:#fdb33c"/><path d="M-730.83,517.84q0-48.81.05-97.62h98.56q0,1.9.1,3.8a6.84,6.84,0,0,0-.39,3.42q0,41.56,0,83.12a6.89,6.89,0,0,0,.39,3.42c-.17,1.76,1.09,4.88-2.88,3-1.73.91-3.59.45-5.39.46q-42.11,0-84.23,0c-1.8,0-3.66-.43-5.39.44A2.7,2.7,0,0,1-730.83,517.84Z" transform="translate(777.81 -269.2)" style="fill:#0134fe"/><path d="M-730,518c1.51-1.55,3.45-.92,5.21-.92q44.9-.05,89.8,0c-1.32,1.51-3.09,1-4.69,1Q-684.84,518-730,518Z" transform="translate(777.81 -269.2)" style="fill:#0d35fc"/><path d="M-632.12,514c-1.27-1.22-.86-2.8-.86-4.25q0-40.73,0-81.46c0-1.45-.4-3,.87-4.25Q-632.12,469-632.12,514Z" transform="translate(777.81 -269.2)" style="fill:#0d35fc"/><path d="M-195.94,474.18a16.33,16.33,0,0,1-7.19,1.84q-33.93.82-67.87.05c-1-2.4-.42-4.91-.46-7.36-.29-16.23.46-32.47-.4-48.69v-1c1.72-.93,3.58-.46,5.37-.47q27.38-.06,54.76,0c6.44,0,12.9-.34,19.21,1.37l1.52.16a9.24,9.24,0,0,0,4.39,1.82.39.39,0,0,1,.6.31c.54,1,.62,1.77-.63,2.22a5.74,5.74,0,0,1-3,0c-12.63-4-25.63-2.67-38.53-2.78-10.78-.1-21.57,0-32.35,0-2.15,0-4.33-.2-6.37.69-1.85,1.19-1.75,3.06-1.75,4.91,0,13.33.09,26.65-.05,40,0,4.2,1.76,5.52,5.72,5.49,18.32-.1,36.64,0,55-.06,4.55.42,8.87-2,13.46-1.11C-192.51,473.68-195.81,473.09-195.94,474.18Z" transform="translate(777.81 -269.2)" style="fill:#0328f9"/><path d="M-195.94,474.18-194,472c.51-1.65,2.08-2,3.34-2.77,7.61-4.57,11.55-11.17,11.34-20.17-.14-5.94.38-11.86-2.11-17.64-1.2-2.79-4.11-4.33-4.57-7.43q0-.91,0-1.83c5.24,2.26,7.71,6.74,8.74,11.91,1.67,8.37,2,16.86-.72,25.08C-180.83,467.75-186.94,472.79-195.94,474.18Z" transform="translate(777.81 -269.2)" style="fill:#0b29f9"/><path d="M-192.51,419.88c-26.43-1.85-52.9-.43-79.35-.88.57-1.93,2.18-1.14,3.33-1.14q32.17,0,64.34,0C-200.2,417.91-196.2,418-192.51,419.88Z" transform="translate(777.81 -269.2)" style="fill:#0b29f9"/><path d="M-271.86,420c1.46,1.55.84,3.48.84,5.23q.07,25.41,0,50.82c-1-.27-1.08-1.09-1.07-1.93Q-272,447.09-271.86,420Z" transform="translate(777.81 -269.2)" style="fill:#0b29f9"/><path d="M-186.6,421.86c-1.83.28-3.49.15-4.39-1.82C-189.28,420.06-188,421-186.6,421.86Z" transform="translate(777.81 -269.2)" style="fill:#0b29f9"/><path d="M-179.88,346.38c-1.11,3.76-1.55,7.86-5.14,10.4-10,6.29-21.19,6.46-32.53,6.28-15.8-.25-31.61,0-47.41-.08-5.69,0-6-.33-6-5.87q-.06-19,0-37.93c0-5.65.06-5.67,6-5.67,19.8,0,39.59.12,59.39-.06,7.47-.07,14.54.74,20.71,5.35,2.93,2.66,3.3,6.62,5,9.9A58,58,0,0,1-179.88,346.38Z" transform="translate(777.81 -269.2)" style="fill:#feb136"/><path d="M-184.9,318.8c-.54.83-1.2,1.15-2,.33-3.68-3.85-8.54-4.08-13.34-4.1-22.32-.09-44.64,0-67-.15-2.18,0-2.88.25-2.87,2.51q.12,20.48,0,41c0,2.9,1.15,3.69,3.87,3.68,20.82-.07,41.65.35,62.45-.3,5.52-.17,11.75-1.26,16.41-5.4,1.16-1,1.88-1.46,2.3.46-4.55,4.92-10.39,7-16.87,7-22.13.16-44.25.11-66.38.3-3.2,0-3.87-1.13-3.84-4.07q.19-22,0-43.92c0-2.89.56-4.13,3.81-4.11,22.46.17,44.92.14,67.38.22a35,35,0,0,1,4.89.69c2.22,1,4.71,1.2,7,2.08A11.38,11.38,0,0,1-184.9,318.8Z" transform="translate(777.81 -269.2)" style="fill:#fdae2f"/><path d="M-179.88,346.38q0-8.84,0-17.68A24.85,24.85,0,0,1-179.88,346.38Z" transform="translate(777.81 -269.2)" style="fill:#fdb33c"/><path d="M-189,315c-2.55,0-5-.25-7-2.08A9.07,9.07,0,0,1-189,315Z" transform="translate(777.81 -269.2)" style="fill:#feb136"/><path d="M-636,272h2c.71,1.05.48,2.25.48,3.39q0,42.11,0,84.22c0,1.14.25,2.34-.48,3.39-1.72-1.65-1-3.78-1-5.69q-.08-39.5,0-79C-635,276.16-634.77,274-636,272Z" transform="translate(777.81 -269.2)" style="fill:#feb43d"/><path d="M-634,363q0-45.5,0-91c1.53,1.3,1,3.08,1,4.67q0,43.16,0,86.33Z" transform="translate(777.81 -269.2)" style="fill:#fcb136"/><path d="M-635,514.69v-92.1h.52v92.26Z" transform="translate(777.81 -269.2)" style="fill:#0d35fc"/><path d="M-186,424c5.25,2.24,6.84,7.61,7.45,12,1,7.18,1.67,14.67-.83,22S-187.08,469.45-194,472c-4.39.35-8.53,2.27-13,2-1.72-1-3.59-.48-5.38-.48-17.48,0-35-.13-52.43.06-3.7,0-4.82-.89-4.76-4.69.23-14.64.08-29.29.11-43.94,0-1.75-.59-3.76,1.46-4.94,19.75,0,39.5.16,59.24-.09C-200.83,419.82-193.45,421.9-186,424Z" transform="translate(777.81 -269.2)" style="fill:#0134fe"/><path d="M-268,420a9.8,9.8,0,0,0-1,5.29c0,14.27.16,28.55-.08,42.81-.07,4.1,1.35,5,5.14,5,17.26-.17,34.52-.09,51.78,0,1.74,0,3.69-.66,5.17,1-19.27,0-38.55-.12-57.82.1-4.22,0-5.31-1.29-5.25-5.37.22-14.62.05-29.24.14-43.86C-269.94,423.12-271.07,420.64-268,420Z" transform="translate(777.81 -269.2)" style="fill:#073afe"/></svg>