<svg id="Layer_1" data-name="Layer 1" xmlns="http://www.w3.org/2000/svg" viewBox="0 0 512 327"><title>cvv</title><rect width="512" height="327" style="fill:#eaeaea"/><rect x="32" y="33" width="447" height="260" rx="16.61" ry="16.61" style="fill:#939393"/><rect x="45" y="33" width="435" height="260" rx="16.61" ry="16.61" style="fill:#bfbfbf"/><rect x="32" y="54" width="448" height="67"/><rect x="45" y="54" width="434" height="67" style="fill:#282828"/><rect x="62" y="139" width="219" height="42" style="fill:#d1d1d1"/><rect x="62" y="265" width="219" height="12" style="fill:#d1d1d1"/><rect x="62" y="248" width="219" height="12" style="fill:#d1d1d1"/><text transform="translate(305.65 171.14)" style="font-size:26.182674407958984px;fill:red;font-family:OCRAStd, OCR A Std;letter-spacing:0.02801082983627762em">XXX</text><path d="M355.05,182H312.95c-12.57,0-21.95-9.38-21.95-20.95v-1.11A21,21,0,0,1,311.95,139h42.11A21,21,0,0,1,375,159.95v1.11C375,172.62,365.62,182,355.05,182Z" style="fill:none;stroke:red;stroke-miterlimit:10;stroke-width:4px"/></svg>